<svg width="76" height="30" viewBox="0 0 76 30" fill="none" xmlns="http://www.w3.org/2000/svg">
<path fill-rule="evenodd" clip-rule="evenodd" d="M14.5379 3.85797C13.6446 4.89443 12.2586 5.67178 10.8417 5.55662C10.6569 4.20345 11.3653 2.73512 12.1662 1.84261C13.0286 0.806142 14.5687 0.0575816 15.8316 0C15.9856 1.43954 15.4003 2.8215 14.5379 3.85797Z" fill="black"/>
<path fill-rule="evenodd" clip-rule="evenodd" d="M15.8008 5.84453C14.5687 5.75816 13.429 6.19002 12.5358 6.53551C11.9505 6.76583 11.4269 6.96737 11.0573 6.96737C10.6261 6.96737 10.1024 6.76583 9.51721 6.53551C8.77797 6.2476 7.91552 5.90211 6.99147 5.9309C4.89695 5.95969 2.95645 7.11132 1.87839 8.95393C-0.308532 12.6392 1.29316 18.0806 3.41847 21.0749C4.46573 22.572 5.7286 24.1843 7.36109 24.1267C8.06953 24.0979 8.59316 23.8964 9.14759 23.666C9.76362 23.4069 10.4105 23.1478 11.4269 23.1478C12.3818 23.1478 12.9978 23.4069 13.6138 23.666C14.1375 23.8964 14.6611 24.1267 15.4619 24.0979C17.156 24.0691 18.2341 22.6008 19.2813 21.1324C20.3902 19.5489 20.883 17.9942 20.9754 17.7351V17.7063C20.9754 17.7063 20.9446 17.7063 20.9446 17.6775C20.575 17.5048 17.7105 16.238 17.6797 12.8119C17.6489 9.93282 19.959 8.46449 20.3286 8.23416C20.3594 8.23416 20.3594 8.20537 20.3594 8.20537C18.8809 6.13244 16.6016 5.90211 15.8008 5.84453Z" fill="black"/>
<path fill-rule="evenodd" clip-rule="evenodd" d="M36.1299 1.69866H27.567V23.9539H31.1092V16.3244H36.0067C40.5037 16.3244 43.6455 13.3301 43.6455 8.98273C43.6455 4.63532 40.5653 1.69866 36.1299 1.69866ZM35.2058 13.4453H31.1092V4.60653H35.2058C38.286 4.60653 40.0417 6.21881 40.0417 9.01152C40.0417 11.8042 38.286 13.4453 35.2058 13.4453Z" fill="black"/>
<path fill-rule="evenodd" clip-rule="evenodd" d="M52.0235 7.60077C48.2657 7.60077 45.4628 9.70249 45.3704 12.5816H48.5738C48.851 11.1996 50.1446 10.3071 51.9311 10.3071C54.0873 10.3071 55.3193 11.286 55.3193 13.0998V14.3378L50.8839 14.5969C46.7565 14.8273 44.5387 16.4683 44.5387 19.3474C44.5387 22.2265 46.8489 24.1555 50.1446 24.1555C52.3624 24.1555 54.4261 23.0614 55.3809 21.3052H55.4425V23.9827H58.7383V12.8695C58.7075 9.6737 56.0894 7.60077 52.0235 7.60077ZM55.3193 17.9079C55.3193 19.9808 53.502 21.4779 51.0995 21.4779C49.2206 21.4779 48.0193 20.5854 48.0193 19.2322C48.0193 17.8215 49.1898 17.0154 51.3767 16.9002L55.3193 16.6699V17.9079Z" fill="black"/>
<path fill-rule="evenodd" clip-rule="evenodd" d="M69.6113 24.8177C68.1944 28.7044 66.5619 30 63.1122 30C62.8349 30 61.9725 29.9712 61.7569 29.9136V27.2361C61.9725 27.2649 62.5269 27.2937 62.8041 27.2937C64.375 27.2937 65.2375 26.6603 65.7919 24.9904L66.0999 24.0115L60.0936 7.8023H63.7898L67.9788 20.9309H68.0404L72.2295 7.8023H75.8333L69.6113 24.8177Z" fill="black"/>
</svg>
