<svg width="88" height="21" viewBox="0 0 88 21" fill="none" xmlns="http://www.w3.org/2000/svg">
<path d="M5.17885 0.333374H0.797607V19.9491H5.17885V0.333374Z" fill="#17120F"/>
<path fill-rule="evenodd" clip-rule="evenodd" d="M16.1089 0.333374H11.8199C11.8199 3.94598 10.2058 7.25113 7.39254 9.41869L5.70153 10.7254L12.2811 19.9491H17.6923L11.6354 11.4633C14.4948 8.52707 16.1089 4.57626 16.1089 0.333374Z" fill="#17120F"/>
<path d="M23.0881 0.333374H18.9529V19.9337H23.0881V0.333374Z" fill="#17120F"/>
<path fill-rule="evenodd" clip-rule="evenodd" d="M35.5862 7.25113C34.464 6.46712 33.1266 6.00594 31.6661 6.00594C27.823 6.00594 24.7023 9.20348 24.7023 13.1697C24.7023 17.1205 27.823 20.3334 31.6661 20.3334C33.1112 20.3334 34.464 19.8722 35.5862 19.0882V19.9491H39.537V6.37488H35.5862V7.25113ZM31.989 16.6439C30.0059 16.6439 28.4071 15.0759 28.4071 13.1543C28.4071 11.2327 30.0059 9.66466 31.989 9.66466C33.9721 9.66466 35.5708 11.2327 35.5708 13.1543C35.5708 15.0759 33.9721 16.6439 31.989 16.6439Z" fill="#17120F"/>
<path fill-rule="evenodd" clip-rule="evenodd" d="M77.2465 7.25113C76.1243 6.46712 74.7869 6.00594 73.3265 6.00594C69.4833 6.00594 66.3626 9.20348 66.3626 13.1697C66.3626 17.1205 69.4833 20.3334 73.3265 20.3334C74.7869 20.3334 76.1243 19.8722 77.2465 19.0882V19.9491H81.1973V6.37488H77.2465V7.25113ZM73.6647 16.6439C71.6816 16.6439 70.0828 15.0759 70.0828 13.1543C70.0828 11.2327 71.6816 9.66466 73.6647 9.66466C75.6478 9.66466 77.2465 11.2327 77.2465 13.1543C77.2465 15.0759 75.6324 16.6439 73.6647 16.6439Z" fill="#17120F"/>
<path fill-rule="evenodd" clip-rule="evenodd" d="M85.394 15.1374C84.0259 15.1374 82.919 16.275 82.919 17.6893C82.919 19.1036 84.0259 20.2411 85.394 20.2411C86.7622 20.2411 87.8691 19.1036 87.8691 17.6893C87.8691 16.275 86.7622 15.1374 85.394 15.1374Z" fill="#17120F"/>
<path fill-rule="evenodd" clip-rule="evenodd" d="M59.3526 6.02132C57.7692 6.02132 56.278 6.52863 55.2788 7.91218V6.3749H51.3433V19.9337H55.3249V12.8161C55.3249 10.7561 56.6777 9.74154 58.2919 9.74154C60.029 9.74154 61.0282 10.8023 61.0282 12.7854V19.9337H64.979V11.3249C64.979 8.15814 62.5347 6.02132 59.3526 6.02132Z" fill="#17120F"/>
<path fill-rule="evenodd" clip-rule="evenodd" d="M45.64 8.14274V6.37487H41.597V19.9337H45.6554V13.6155C45.6554 11.4786 47.9152 10.3257 49.4678 10.3257H49.5293V6.37487C47.9152 6.37487 46.4394 7.08202 45.64 8.14274Z" fill="#17120F"/>
</svg>
