<svg width="40" height="46" viewBox="0 0 40 46" fill="none" xmlns="http://www.w3.org/2000/svg">
<path d="M35.2997 11.5996C35.2581 11.8665 35.2104 12.1394 35.1568 12.4197C33.3118 21.8904 27.0013 25.1621 18.9411 25.1621H14.8374C13.8518 25.1621 13.0212 25.8779 12.8676 26.8501L10.7663 40.1757L10.1714 43.9527C10.0714 44.5911 10.5637 45.1667 11.2076 45.1667H18.4865C19.3485 45.1667 20.0804 44.5404 20.216 43.6905L20.2877 43.3204L21.6583 34.6237L21.7463 34.1468C21.8803 33.2939 22.6138 32.6676 23.4758 32.6676H24.5644C31.6162 32.6676 37.1369 29.8044 38.7505 21.5191C39.4244 18.058 39.0755 15.1681 37.2919 13.1355C36.7523 12.5226 36.0827 12.0141 35.2997 11.5996Z" fill="#179BD7"/>
<path d="M33.3693 10.831C33.0877 10.749 32.7967 10.6744 32.4984 10.6073C32.1987 10.5418 31.8914 10.4836 31.5755 10.4329C30.4688 10.2539 29.2566 10.1689 27.9577 10.1689H16.9944C16.7244 10.1689 16.4682 10.2301 16.2385 10.3404C15.7328 10.5835 15.3573 11.0622 15.2662 11.6482L12.9337 26.4201L12.8667 26.8511C13.0204 25.8788 13.851 25.163 14.8366 25.163H18.9403C27.0004 25.163 33.3114 21.8898 35.1559 12.4207C35.2108 12.1403 35.2572 11.8674 35.2988 11.6005C34.8322 11.353 34.3266 11.1412 33.7823 10.9608C33.6483 10.916 33.5097 10.8728 33.3693 10.831Z" fill="#222D65"/>
<path d="M15.2664 11.6475C15.3574 11.0615 15.7335 10.5828 16.2387 10.3412C16.4701 10.2309 16.7251 10.1697 16.9946 10.1697H27.9583C29.2572 10.1697 30.4694 10.2547 31.5756 10.4337C31.892 10.4844 32.1994 10.5425 32.499 10.6081C32.7973 10.6753 33.0879 10.7498 33.3699 10.8318C33.5099 10.8736 33.6485 10.9168 33.7842 10.9601C34.3285 11.1405 34.8341 11.3538 35.3007 11.5998C35.8498 8.09994 35.2965 5.71701 33.4043 3.55921C31.3181 1.18374 27.5526 0.166748 22.7347 0.166748H8.74688C7.76259 0.166748 6.92339 0.882492 6.771 1.85626L0.945125 38.786C0.830084 39.5166 1.3937 40.1759 2.13031 40.1759H10.7661L12.9343 26.4194L15.2664 11.6475Z" fill="#253B80"/>
</svg>
