<svg width="79" height="34" viewBox="0 0 79 34" fill="none" xmlns="http://www.w3.org/2000/svg">
<path fill-rule="evenodd" clip-rule="evenodd" d="M42.5727 5.156L37.1227 6.32274V1.90139L42.5727 0.75V5.156Z" fill="#6461FC"/>
<path fill-rule="evenodd" clip-rule="evenodd" d="M53.9331 7.6123C51.7992 7.6123 50.4328 8.61018 49.6653 9.30102L49.3889 7.95005H44.5991V33.25L50.0337 32.0986L50.0491 25.9578C50.832 26.5259 51.9834 27.3242 53.9024 27.3242C57.8018 27.3242 61.3327 24.1924 61.3327 17.3301C61.3174 11.0358 57.725 7.6123 53.9331 7.6123ZM52.6282 22.5497C51.3386 22.5497 50.5864 22.0892 50.0644 21.5365L50.0337 13.4921C50.6017 12.8627 51.3847 12.4328 52.6282 12.4328C54.6086 12.4328 55.9749 14.6435 55.9749 17.4836C55.9749 20.3851 54.6239 22.5497 52.6282 22.5497Z" fill="#6461FC"/>
<path fill-rule="evenodd" clip-rule="evenodd" d="M70.636 7.6123C65.4624 7.6123 62.3306 11.9876 62.3306 17.4989C62.3306 24.0235 66.0304 27.3242 71.3268 27.3242C73.9213 27.3242 75.871 26.7408 77.3447 25.9118V21.5672C75.871 22.3041 74.1669 22.7646 72.0176 22.7646C69.9144 22.7646 68.0415 22.0278 67.7959 19.464H78.4347C78.4347 19.3412 78.4501 19.0802 78.4501 18.7578C78.4654 18.3279 78.4808 17.8367 78.4808 17.5296C78.4808 11.9876 75.7789 7.6123 70.636 7.6123ZM67.7345 15.4878C67.7345 13.0315 69.2389 12.0183 70.6053 12.0183C71.9255 12.0183 73.3533 13.0315 73.3533 15.4878H67.7345Z" fill="#6461FC"/>
<path d="M42.5727 7.98075H37.1074V26.9711H42.5727V7.98075Z" fill="#6461FC"/>
<path fill-rule="evenodd" clip-rule="evenodd" d="M30.9206 7.98075L31.2737 9.5927C32.5632 7.24386 35.0963 7.71977 35.8025 7.98075V12.9701C35.1116 12.7245 32.947 12.4175 31.6575 14.0908V26.9557H26.2229V7.98075H30.9206Z" fill="#6461FC"/>
<path fill-rule="evenodd" clip-rule="evenodd" d="M20.3892 3.26771L15.0774 4.3884L15.062 21.7668C15.062 24.9753 17.4723 27.3395 20.6962 27.3395C22.477 27.3395 23.7819 27.0171 24.5035 26.618V22.212C23.8126 22.4883 20.3738 23.4862 20.3738 20.2776V12.6017H24.5035V7.98075H20.3738L20.3892 3.26771Z" fill="#6461FC"/>
<path fill-rule="evenodd" clip-rule="evenodd" d="M7.5396 12.31C6.38821 12.31 5.69737 12.6324 5.69737 13.4767C5.69737 14.3979 6.89482 14.8124 8.38396 15.3036C10.8096 16.1326 13.9874 17.2073 14.0028 21.2141C14.0028 25.0981 10.8863 27.3395 6.37286 27.3395C4.49992 27.3395 2.45812 26.9711 0.431666 26.096V20.9378C2.25854 21.9356 4.56133 22.6725 6.37286 22.6725C7.58566 22.6725 8.46072 22.3501 8.46072 21.3523C8.46072 20.3237 7.1558 19.8631 5.58991 19.2951C3.19501 18.4508 0.186035 17.3608 0.186035 13.7531C0.186035 9.91509 3.11825 7.6123 7.5396 7.6123C9.35113 7.6123 11.132 7.88864 12.9281 8.61018V13.707C11.2855 12.8166 9.18226 12.31 7.5396 12.31Z" fill="#6461FC"/>
</svg>
