<svg width="79" height="26" viewBox="0 0 79 26" fill="none" xmlns="http://www.w3.org/2000/svg">
<path fill-rule="evenodd" clip-rule="evenodd" d="M23.3827 1.39583L16.6119 17.7972L13.9752 3.80136C13.7799 2.48925 12.6731 1.36459 11.1431 1.36459H0.270752V2.11436C2.51685 2.48925 4.60018 3.23902 6.45565 4.17624C7.20435 4.55113 7.72518 5.33215 7.95304 6.23812L13.0312 25.6386H19.802L29.9583 1.39583H23.3827Z" fill="#172B85"/>
<path fill-rule="evenodd" clip-rule="evenodd" d="M32.5624 1.39583L27.3215 25.6386H33.7017L38.9752 1.39583H32.5624Z" fill="#172B85"/>
<path fill-rule="evenodd" clip-rule="evenodd" d="M47.2109 8.11256C47.4062 6.80046 48.5129 6.05068 49.8476 6.05068C51.8984 5.86324 54.177 6.23812 56.0325 7.17534L57.1718 1.95816C55.2838 1.20838 53.233 0.833496 51.345 0.833496C45.1601 0.833496 40.6353 4.17624 40.6353 8.86234C40.6353 12.3925 43.8254 14.267 46.0715 15.3916C48.5129 16.5163 49.457 17.2661 49.2616 18.3595C49.2616 20.0465 47.3736 20.7963 45.5181 20.7963C43.2721 20.7963 40.9934 20.2339 38.9426 19.2967L37.8033 24.5139C40.0819 25.4511 42.5234 25.826 44.7694 25.826C51.703 26.0134 56.0325 22.6707 56.0325 17.6097C56.065 11.2679 47.2109 10.893 47.2109 8.11256Z" fill="#172B85"/>
<path fill-rule="evenodd" clip-rule="evenodd" d="M73.3176 1.39583H67.8814C66.7421 1.39583 65.6353 2.1456 65.2447 3.27026L55.8697 25.6386H62.4452L63.7473 22.1084H71.8202L72.5689 25.6386H78.3958L73.3176 1.39583ZM65.44 17.0474L68.8254 7.92512L70.7135 17.0474H65.44Z" fill="#172B85"/>
</svg>
